<svg xmlns="http://www.w3.org/2000/svg" viewBox="0 0 640 512" fill="currentColor"><path d="M524.5 69.8a503.3 503.3 0 0 0 -124.2-38.5c-5.8 10.5-12.3 23.3-16.9 34.2-50 0-99.1 0-148 0-4.6-11-11.1-23.7-17-34.2a503.2 503.2 0 0 0 -124.2 38.5C41.7 165.2 20.1 258.4 25.1 350.2a494.6 494.6 0 0 0 148.8 75.3 361.6 361.6 0 0 0 31.9-52.1c-16.9-6.4-33-14.2-48-23.6 4-3 7.9-6.3 11.6-9.7 100.8 46.5 209.7 46.5 311 0 3.7 3.4 7.6 6.7 11.6 9.7-15 9.4-31.2 17.3-48 23.6 11.1 19.4 21.8 36.8 31.9 52.1a494.6 494.6 0 0 0 148.8-75.3c5-104-20.1-196.8-69.3-280.4zM205.7 300.6c-29.7 0-54.2-27.3-54.2-60.8s23.9-60.8 54.2-60.8 54.7 27.3 54.2 60.8c0 33.5-23.9 60.8-54.2 60.8zm228.6 0c-29.7 0-54.2-27.3-54.2-60.8s23.9-60.8 54.2-60.8 54.7 27.3 54.2 60.8c0 33.5-23.9 60.8-54.2 60.8z"/></svg>
